PathFileType	4	(X/Y/Z)	C:/Users/beibeiliu/ov580/test_trc/User3\sequence.36_training_dense_right.trc
DataRate	CameraRate	NumFrames	NumMarkers	Units	OrigDataRate	OrigDataStartFrame	OrigNumFrames
120	120	12	19	mm	120	64	252
Frame#	Time	ThumbCMC			ThumbMCP			ThumbIP			ThumbTip			IndexMCP			IndexPIP			IndexTip			MiddleMCP			MiddlePIP			MiddleTip			RingMCP			RingPIP			RingTip			PinkyMCP			PinkyPIP			PinkyTip			BackHand1			BackHand2			BackHand3	
		X0	Y0	Z0	X1	Y1	Z1	X2	Y2	Z2	X3	Y3	Z3	X4	Y4	Z4	X5	Y5	Z5	X6	Y6	Z6	X7	Y7	Z7	X8	Y8	Z8	X9	Y9	Z9	X10	Y10	Z10	X11	Y11	Z11	X12	Y12	Z12	X13	Y13	Z13	X14	Y14	Z14	X15	Y15	Z15	X16	Y16	Z16	X17	Y17	Z17	X18	Y18	Z18	
63	0.525	92.4957	-13.1569	37.4399	70.3875	-24.0503	18.7863	51.0847	-31.3587	-2.9592	38.8464	-44.8296	-21.0819	101.809	-33.7546	-33.8351	82.4135	-43.1925	-58.177	65.9704	-64.5844	-67.3386	115.416	-51.3395	-38.9268	98.7436	-63.5748	-58.9762	70.694	-90.456	-69.2882	121.805	-69.1118	-25.5099	101.842	-87.4059	-39.4461	77.3026	-103.585	-32.6857	130.73	-83.7926	-9.85934	111.635	-95.3172	-20.3303	85.5973	-107.354	-13.115	148.092	-42.2183	13.2675	155.038	-35.2823	46.4725	127.754	-12.3734	24.4621	
64	0.533333	97.5129	-14.5032	44.5719	72.1031	-24.2934	18.7082	54.066	-32.2798	1.25948	44.644	-46.326	-19.2033	104.18	-30.2377	-32.0879	86.1795	-45.7303	-57.479	70.3689	-65.0723	-66.721	117.659	-48.8758	-38.0769	103.767	-66.9899	-58.2618	76.2768	-86.331	-68.8601	124.813	-69.3254	-24.6313	103.586	-91.665	-38.8853	81.1246	-103.222	-32.5628	133.012	-83.2587	-9.19458	113.333	-99.4417	-18.7042	90.2407	-110.971	-10.1799	151.427	-44.9521	15.5983	159.019	-36.7196	47.3309	132.99	-14.7559	28.7272	
65	0.541667	99.4399	-14.3152	43.8708	78.6645	-26.8027	22.4902	59.6298	-33.2205	1.56779	49.6365	-46.9683	-15.0923	109.34	-31.5417	-30.2143	95.1162	-49.0767	-54.3921	78.0465	-63.3778	-65.2985	125.556	-53.2297	-38.5154	109.957	-66.4047	-56.8923	83.3508	-85.1269	-67.5846	126.978	-68.5255	-25.1838	108.282	-87.0012	-37.661	82.4331	-103.214	-30.6075	136.412	-84.0696	-8.68693	116.269	-102.17	-15.6753	94.493	-108.265	-8.14125	155.443	-43.5528	20.651	160.006	-35.4715	50.9934	138.767	-15.1015	27.5625	
66	0.55	103.535	-13.5013	44.9811	82.8724	-25.7289	25.3534	63.7366	-33.1488	-0.0547762	55.8086	-47.1277	-15.1791	114.329	-34.6657	-30.8039	99.9405	-43.6728	-52.3117	79.7985	-64.0923	-65.9932	130.769	-50.5182	-33.1107	115.383	-66.17	-55.9797	88.4807	-89.7735	-66.3524	133.788	-70.9567	-24.7773	113.578	-90.2642	-36.2358	90.174	-103.275	-29.8982	143.036	-83.8915	-5.90529	126.038	-98.9564	-14.422	99.3517	-111.282	-4.2123	161.757	-45.4117	19.6335	165.128	-37.8824	50.9798	142.006	-14.8737	32.8839	
67	0.558333	109.071	-11.3839	47.2982	88.8783	-24.3006	26.1074	73.2186	-34.1801	1.87869	60.4273	-44.7852	-12.8084	121.526	-33.4802	-28.4755	105.214	-44.6022	-50.9094	89.0395	-64.7173	-62.5838	134.076	-49.1171	-34.6729	122.583	-65.763	-53.283	97.948	-87.6747	-63.4513	143.716	-68.1707	-18.2131	124.316	-86.1502	-33.6937	99.0476	-103.293	-27.4063	151.402	-84.7804	-1.75615	128.272	-99.0546	-13.2782	107.36	-110.043	-3.85304	166.704	-41.7913	25.3226	173.898	-36.1406	56.0589	146.652	-11.6432	32.1356	
68	0.566667	113.817	-11.8763	49.4539	94.6576	-23.419	29.669	72.9845	-30.6509	5.08638	64.1724	-43.5482	-11.7225	126.801	-32.0426	-24.3874	114.159	-45.1422	-47.7191	93.0105	-60.7835	-60.2329	142.571	-50.9593	-33.1677	128.136	-65.6948	-50.9729	102.686	-88.0298	-61.5749	149.365	-68.9003	-17.8282	129.394	-84.7369	-32.0834	101.548	-102.934	-26.2756	155.525	-82.8619	-1.13975	138.874	-96.2349	-10.1373	110.22	-107.464	-2.97681	170.477	-38.7934	27.1596	176.957	-34.9199	54.5137	153.979	-14.2713	34.5473	
69	0.575	121.426	-14.3421	47.0912	99.7163	-22.7739	29.5766	79.9502	-30.8903	3.4387	70.1311	-43.1389	-9.3114	128.654	-30.303	-27.8212	115.644	-43.302	-47.9919	97.4421	-60.0763	-59.3384	146.519	-47.4955	-30.3506	130.958	-62.5785	-51.3159	108.286	-89.428	-59.4768	153.899	-66.5509	-15.5205	134.382	-82.9067	-30.6207	109.867	-105.137	-23.0853	158.264	-80.9025	-1.79871	144.553	-99.9658	-7.51956	119.059	-108.475	-0.785342	176.833	-41.0778	25.9659	179.1	-30.4431	58.2897	155.341	-10.7592	39.5008	
70	0.583333	125.063	-13.5953	50.0863	102.854	-23.6398	27.7966	81.8559	-29.4421	4.8926	73.3261	-43.5404	-11.7595	135.367	-33.7132	-27.9915	119.783	-43.9486	-48.1442	98.002	-62.4471	-59.9907	153.659	-49.8809	-28.307	136.174	-60.5982	-50.1492	113.929	-87.0203	-58.6516	155.972	-65.086	-15.0682	138.682	-83.3304	-30.7138	112.188	-100.819	-24.9123	162.824	-80.7866	-1.56637	143.806	-99.3106	-8.06483	122.171	-105.449	-2.76443	179.56	-42.3807	26.4888	183.086	-33.447	55.318	162.339	-11.157	36.8698	
71	0.591667	128.245	-13.1168	48.3452	104.143	-19.9197	29.149	89.0914	-32.5657	4.12052	75.9821	-44.3776	-14.0326	139.588	-30.6853	-26.1471	125.359	-46.88	-48.2708	105.549	-59.1316	-58.7239	154.021	-47.8073	-31.0821	140.382	-61.3599	-50.6	111.689	-86.686	-59.8075	159.286	-66.6434	-16.0657	143.958	-86.7892	-27.8576	113.642	-102.943	-22.6525	167.578	-81.5102	2.75115	149.574	-95.7219	-8.62976	126.542	-104.952	-0.837552	185.524	-40.701	29.8167	186.713	-31.9549	61.179	163.911	-11.8707	41.4158	
72	0.6	132.057	-11.8428	51.9818	108.339	-21.0194	26.4828	92.4692	-31.0152	3.75948	81.1286	-43.88	-12.9195	144.911	-30.3117	-23.0846	127.836	-45.1854	-49.1767	108.609	-61.9689	-58.7318	158.272	-48.1823	-28.9957	144.137	-64.9846	-50.4643	117.327	-83.6076	-59.0274	163.252	-64.6332	-14.2646	142.273	-83.7711	-29.6465	118.864	-103.546	-21.5153	170.182	-78.8482	3.14707	148.34	-96.0023	-7.94152	124.621	-107.627	1.13492	187.775	-40.2689	30.127	191.235	-34.7674	56.6867	166.059	-10.6448	36.6289	
73	0.608333	133.842	-12.0116	48.2687	107.943	-17.5337	28.7971	94.3352	-30.0944	5.81568	83.8405	-41.1218	-11.5531	145.14	-28.833	-24.802	127.606	-39.1972	-47.9805	111.183	-56.49	-59.282	159.919	-46.2416	-28.7163	146.711	-61.3727	-48.5972	119.588	-82.9129	-59.1711	164.682	-63.227	-13.9771	146.866	-86.5183	-29.7658	120.743	-102.131	-22.7417	172.04	-80.6311	3.3125	152.912	-99.1537	-6.70895	125.522	-107.784	-0.180485	186.31	-40.0173	28.2487	191.315	-33.0401	59.8284	168.07	-10.4201	40.434	
74	0.616667	134.362	-12.9048	50.4258	111.871	-20.853	26.931	96.1121	-29.6029	6.4646	86.2241	-42.2329	-12.1052	145.414	-28.7638	-24.0826	129.317	-40.9885	-48.9908	114.373	-59.6455	-58.5948	160.268	-46.5258	-28.662	147.085	-64.3408	-49.9962	123.514	-84.4565	-59.3341	166.892	-63.6383	-13.7048	145.561	-87.2429	-29.431	124.105	-101.051	-24.3965	173.219	-80.3651	2.92097	151.78	-98.4598	-8.0147	126.493	-104.665	-0.772585	189.429	-42.3945	27.8485	192.514	-33.2231	60.7425	169.996	-11.2922	36.7404	
